HIERARCHY
ROOT Hips
{
  OFFSET 0 0 0
  CHANNELS 6 Xposition Yposition Zposition Zrotation Yrotation Xrotation
  JOINT LeftThigh
  {
    OFFSET 8.409438 0 -5.917753
    CHANNELS 3 Zrotation Yrotation Xrotation
    JOINT LeftLeg
    {
      OFFSET 0 0 -42.358652
      CHANNELS 3 Zrotation Yrotation Xrotation
      JOINT LeftFoot
      {
        OFFSET 0 0 -39.357303
        CHANNELS 3 Zrotation Yrotation Xrotation
      }
    }
  }
  JOINT RightThigh
  {
    OFFSET -8.409438 0 -5.917753
    CHANNELS 3 Zrotation Yrotation Xrotation
    JOINT RightLeg
    {
      OFFSET 0 0 -42.358652
      CHANNELS 3 Zrotation Yrotation Xrotation
      JOINT RightFoot
      {
        OFFSET 0 0 -39.357303
        CHANNELS 3 Zrotation Yrotation Xrotation
      }
    }
  }
  JOINT SpineLow
  {
    OFFSET 0 0 4.719101
    CHANNELS 3 Zrotation Yrotation Xrotation
    JOINT SpineMid
    {
      OFFSET 0 0 12.899191
      CHANNELS 3 Zrotation Yrotation Xrotation
      JOINT Chest
      {
        OFFSET 0 0 12.899191
        CHANNELS 3 Zrotation Yrotation Xrotation
        JOINT LeftShoulder
        {
          OFFSET 7.550562 1.41573 9.438202
          CHANNELS 3 Zrotation Yrotation Xrotation
          JOINT LeftArm
          {
            OFFSET 9.155056 0 4.247191
            CHANNELS 3 Zrotation Yrotation Xrotation
            JOINT LeftForearm
            {
              OFFSET 0 0 25.771955
              CHANNELS 3 Zrotation Yrotation Xrotation
              JOINT LeftHand
              {
                OFFSET 0 0 25.197169
                CHANNELS 3 Zrotation Yrotation Xrotation
              }
            }
          }
        }
        JOINT RightShoulder
        {
          OFFSET -7.550562 1.41573 9.438202
          CHANNELS 3 Zrotation Yrotation Xrotation
          JOINT RightArm
          {
            OFFSET -9.155056 0 4.247191
            CHANNELS 3 Zrotation Yrotation Xrotation
            JOINT RightForearm
            {
              OFFSET 0 0 -25.771955
              CHANNELS 3 Zrotation Yrotation Xrotation
              JOINT RightHand
              {
                OFFSET 0 0 -25.197169
                CHANNELS 3 Zrotation Yrotation Xrotation
              }
            }
          }
        }
        JOINT Neck
        {
          OFFSET 0 0 15.101124
          CHANNELS 3 Zrotation Yrotation Xrotation
          JOINT Head
          {
            OFFSET 0 0 11.325843
            CHANNELS 3 Zrotation Yrotation Xrotation
            End Site
            {
              OFFSET 0 0 14.157303
            }
          }
        }
      }
    }
  }
}
MOTION
Frames: 11
Frame Time: 0.0
0.0  93.25843  0.0  -1.221797  19.928732  -84.583295  6.400147  -10.537564  23.935835  3.047415  -2.808725  -2.97222  -0.026387  0.432624  -3.568248  -15.477069  -14.881683  -37.007808  -1.049534  19.093011  29.624428  6.681522  0.455298  2.731869  -0.941875  -0.428029  -0.678283  -2.56254  -1.196078  -1.837209  -2.56254  -1.196078  -1.83721  -16.854706  21.460193  5.576907  127.890312  45.935924  -161.783121  -16.446947  -14.251629  75.241235  65.53496  -23.420726  15.94674  9.46748  -12.688932  13.265781  63.308188  76.370214  2.98909  -45.306714  0.733537  -62.979449  81.353413  -12.324364  -20.218424  -6.476933  1.535124  1.768577  -4.8619  1.132762  1.342806  
0.0  93.25843  0.0  -1.767098  19.556061  -84.795379  6.726621  -11.250354  24.198829  3.426947  -2.73363  -2.632738  -0.240022  0.264879  -3.60583  -14.608378  -15.386741  -36.398392  -1.182241  19.071142  29.334448  6.607038  0.632608  2.862075  -0.96242  -0.534291  -0.697247  -2.615429  -1.487773  -1.884539  -2.615429  -1.487773  -1.884539  -16.613164  21.400986  5.572715  128.750574  46.739293  -161.823526  -15.534981  -14.490982  74.505269  66.568493  -22.729496  15.602796  9.709834  -12.607222  13.401112  62.994119  76.651113  2.858911  -44.465977  4.022912  -61.887124  82.147599  -13.099147  -18.508471  -6.223597  1.656317  1.704966  -4.672037  1.225038  1.295667  
0.0  93.25843  0.0  -2.449376  19.193726  -85.014309  7.414233  -12.316355  24.172114  3.527803  -2.587236  -1.83326  -0.559109  0.08891  -3.624079  -14.020146  -16.296912  -35.13776  -1.248317  19.067986  28.564881  6.263205  0.903815  2.728782  -0.99321  -0.678132  -0.718171  -2.695096  -1.882555  -1.935298  -2.695096  -1.882555  -1.935298  -16.744773  21.401489  5.255402  129.831646  47.622703  -161.998101  -14.579587  -14.754624  73.852001  68.14364  -21.985737  15.417418  9.859028  -12.444111  13.405669  63.939968  77.001375  3.912972  -43.509374  7.732645  -60.486214  82.745656  -13.946601  -16.906672  -5.83321  1.843296  1.747628  -4.379844  1.365953  1.328351  
0.0  93.25843  0.0  -3.246242  18.701467  -85.34887  8.526166  -13.60108  23.889222  3.349991  -2.464324  -0.469501  -0.90613  -0.111391  -3.58867  -13.826989  -17.393156  -33.820514  -0.934215  19.005781  27.837038  5.796757  1.124426  2.695781  -1.003933  -0.849935  -0.731458  -2.719205  -2.352879  -1.964444  -2.719204  -2.352879  -1.964443  -16.854216  21.506239  4.821282  130.435922  48.605914  -162.419284  -13.440045  -15.618115  73.115782  70.067387  -21.192205  15.300479  10.030244  -12.3073  13.373145  65.41189  77.459847  5.69754  -42.231762  11.24463  -59.031268  83.040498  -14.795805  -15.756442  -5.425232  2.086668  1.893964  -4.074989  1.548352  1.438981  
0.0  93.25843  0.0  -4.067212  17.99851  -85.878744  9.812027  -15.034109  23.388608  2.994877  -2.260048  1.529896  -1.125729  -0.189414  -3.594352  -13.503089  -18.559764  -32.203566  -0.686566  19.104888  26.766008  5.940539  1.111779  2.986319  -0.979727  -1.018048  -0.699757  -2.649728  -2.8103  -1.872134  -2.649728  -2.8103  -1.872135  -17.020683  21.536857  4.187083  130.736373  49.738583  -162.870655  -11.880474  -17.175637  72.227918  72.01607  -20.223618  15.127467  10.212099  -12.252538  13.151818  66.5421  77.83923  7.346759  -40.579184  14.17111  -57.727838  83.067359  -15.485394  -15.000137  -5.032056  2.302999  2.064801  -3.781369  1.710412  1.56749  
0.0  93.25843  0.0  -4.756355  17.089215  -86.560168  11.162285  -16.46955  22.722608  2.793709  -1.910223  4.107744  -1.229466  -0.194071  -3.342604  -13.00894  -19.469142  -30.437606  -0.293438  19.029146  25.772846  5.954115  1.121071  3.265318  -0.923396  -1.160591  -0.643336  -2.494703  -3.19615  -1.715094  -2.494703  -3.19615  -1.715094  -17.066453  21.578325  3.666245  130.995956  51.266354  -163.181123  -9.942122  -18.94041  71.439217  73.724578  -18.967485  15.002952  10.38185  -12.18991  12.930628  67.081794  77.954008  8.495678  -38.782628  16.270802  -56.77244  83.113834  -15.712292  -14.379637  -4.674036  2.499748  2.310858  -3.514487  1.857301  1.752119  
0.0  93.25843  0.0  -5.182543  16.089511  -87.213429  12.346316  -17.58947  22.025175  3.120712  -1.702491  7.427875  -1.426135  -0.290214  -3.06647  -12.742983  -19.976428  -28.75671  0.295268  18.700757  25.088436  5.874585  1.176808  3.350346  -0.865253  -1.250986  -0.585267  -2.33657  -3.439668  -1.556041  -2.33657  -3.439668  -1.556041  -16.915315  21.569333  3.337068  131.304251  53.203988  -163.45017  -7.957469  -20.596817  70.956043  75.203501  -17.636681  15.079011  10.617604  -12.06569  12.809455  67.576081  77.973726  9.42475  -37.162732  17.475918  -56.045998  83.862484  -15.694894  -13.565292  -4.319336  2.650331  2.6076  -3.250308  1.969482  1.97421  
0.0  93.25843  0.0  -5.298747  15.163254  -87.700743  13.011016  -18.204421  21.177459  3.773934  -1.961935  11.367045  -1.825775  -0.301868  -2.872749  -12.240509  -19.944902  -27.329814  0.572776  18.291996  24.487878  5.972346  1.246203  3.507506  -0.831903  -1.286667  -0.543819  -2.24681  -3.535016  -1.443249  -2.24681  -3.535016  -1.443249  -16.683606  21.518829  3.106512  131.552014  55.36972  -163.840721  -6.26952  -22.169069  70.745344  76.591494  -16.51051  15.366866  10.901064  -11.82875  12.823544  67.4148  78.093463  9.521369  -35.654538  18.207904  -55.427748  85.156643  -15.554581  -12.816663  -3.933814  2.788235  2.939852  -2.96328  2.072417  2.222523  
0.0  93.25843  0.0  -5.249917  14.164815  -88.218168  13.274969  -18.272067  20.107132  4.030928  -2.657706  15.747481  -2.281698  -0.163636  -2.62966  -11.43141  -19.523294  -26.013589  0.321581  17.935619  23.761029  5.729158  1.253673  3.58937  -0.797091  -1.283928  -0.492213  -2.154396  -3.525122  -1.304039  -2.154396  -3.525122  -1.304039  -16.478062  21.382818  2.894414  131.798395  57.617762  -164.239497  -4.963931  -23.775368  70.707641  77.815651  -15.747669  15.860161  11.230628  -11.551558  12.942336  67.595321  78.356096  9.867897  -34.40364  19.079525  -54.86487  86.453869  -15.360444  -12.444523  -3.569492  2.910993  3.29886  -2.69236  2.164144  2.490728  
0.0  93.25843  0.0  -5.174217  13.155021  -88.718987  13.084383  -17.852844  18.621048  3.426364  -3.206871  20.54919  -2.214061  -0.160025  -2.265659  -10.451351  -19.048646  -24.695442  -0.129817  17.581166  22.885867  5.826166  1.266752  3.791392  -0.751271  -1.260126  -0.446348  -2.031878  -3.45779  -1.181733  -2.031878  -3.45779  -1.181733  -16.394869  21.105325  2.728755  132.254513  59.990888  -164.363186  -3.942656  -25.455808  70.728701  78.447174  -15.202686  16.546437  11.505105  -11.284636  13.108244  69.296675  78.708936  11.61426  -33.518761  20.437266  -54.278354  87.45119  -15.119173  -12.46003  -2.989556  2.970992  3.828536  -2.260395  2.209687  2.885384  
0.0  93.25843  0.0  -5.091654  12.170689  -89.198834  12.285769  -17.144848  16.741796  2.241172  -3.18215  25.744829  -1.439813  -0.204384  -1.723158  -9.455755  -18.582787  -23.369559  -0.720877  17.214356  21.860747  5.782277  1.256307  3.936894  -0.691226  -1.208492  -0.392266  -1.871169  -3.314103  -1.038358  -1.871169  -3.314104  -1.038358  -16.509521  20.572263  2.506482  132.965679  62.493921  -164.196264  -3.14986  -27.175543  70.80384  78.741671  -14.798253  17.049689  11.691712  -11.104272  13.134914  72.271377  79.054901  14.478797  -32.844192  22.229386  -53.613617  88.175108  -14.922472  -12.585676  -2.754305  2.957629  4.232775  -2.085888  2.199329  3.187291  
